# xmcd
#
# Track frame offsets: 
#        150
#        13850
#        29460
#        44120
#        59419
#        69843
#        84354
#        96979
#        114149
#        132056
#        147594
#
# Disc length: 2200 seconds
#
# Revision: 0
# Processed by: cddbd v1.5.2PL0 Copyright (c) Steve Scherf et al.
# Submitted via: ExactAudioCopy v1.3
#
DISCID=9608960b
DTITLE=Tyler Pedersen - Swingin' In Space
DYEAR=2016
DGENRE=Jazzy Blues
TTITLE0=53
TTITLE1=Swing 53
TTITLE2=The Dig
TTITLE3=Solar Moler
TTITLE4=Sheb's Shuffle
TTITLE5=Been Here Before
TTITLE6=53 A Go-Go
TTITLE7=Stridin on Europe
TTITLE8=No Looking Back
TTITLE9=Ganymede Train
TTITLE10=The Jupiter Dog
EXTD=
EXTT0=
EXTT1=
EXTT2=
EXTT3=
EXTT4=
EXTT5=
EXTT6=
EXTT7=
EXTT8=
EXTT9=
EXTT10=
PLAYORDER=
